HIERARCHY
ROOT Pelvis
{
	OFFSET 0.000000 0.000000 0.000000
	CHANNELS 6 Xposition Yposition Zposition Xrotation Yrotation Zrotation
	JOINT LeftUpLeg_virtual
	{
		OFFSET 0.000000 0.000000 0.000000
		CHANNELS 3 Xrotation Yrotation Zrotation
		JOINT LeftUpLeg
		{
			OFFSET 8.479700 -4.795502 -0.379100
			CHANNELS 3 Xrotation Yrotation Zrotation
			JOINT LeftLeg
			{
				OFFSET 0.024144 -32.555107 0.112900
				CHANNELS 3 Xrotation Yrotation Zrotation
				JOINT LeftFoot
				{
					OFFSET -0.024144 -32.638630 -3.012600
					CHANNELS 3 Xrotation Yrotation Zrotation
					JOINT LeftToeBase
					{
						OFFSET 0.970200 -13.225400 11.864200
						CHANNELS 3 Xrotation Yrotation Zrotation
						End Site
						{
							OFFSET 0 0 0
						}
					}
				}
			}
		}
	}
	JOINT RightUpLeg_virtual
	{
		OFFSET 0.000000 0.000000 0.000000
		CHANNELS 3 Xrotation Yrotation Zrotation
		JOINT RightUpLeg
		{
			OFFSET -8.479700 -4.795502 -0.379100
			CHANNELS 3 Xrotation Yrotation Zrotation
			JOINT RightLeg
			{
				OFFSET -0.023144 -32.555092 0.112900
				CHANNELS 3 Xrotation Yrotation Zrotation
				JOINT RightFoot
				{
					OFFSET 0.023144 -32.638641 -3.012700
					CHANNELS 3 Xrotation Yrotation Zrotation
					JOINT RightToeBase
					{
						OFFSET -0.970200 -13.225400 11.864200
						CHANNELS 3 Xrotation Yrotation Zrotation
						End Site
						{
							OFFSET 0 0 0
						}
					}
				}
			}
		}
	}
	JOINT Hips_virtual
	{
		OFFSET 0.000000 0.000000 0.000000
		CHANNELS 3 Xrotation Yrotation Zrotation
		JOINT Hips
		{
			OFFSET -0.000000 -0.000000 -0.000000
			CHANNELS 3 Xrotation Yrotation Zrotation
			JOINT Spine
			{
				OFFSET 0.000000 7.722000 1.166200
				CHANNELS 3 Xrotation Yrotation Zrotation
				JOINT Spine1
				{
					OFFSET 0.000000 12.024101 0.248800
					CHANNELS 3 Xrotation Yrotation Zrotation
					JOINT Spine2
					{
						OFFSET 0.000000 11.502998 -0.491200
						CHANNELS 3 Xrotation Yrotation Zrotation
						JOINT Neck_virtual
						{
							OFFSET 0.000000 0.000000 0.000000
							CHANNELS 3 Xrotation Yrotation Zrotation
							JOINT Neck
							{
								OFFSET 0.000000 18.430702 -3.123100
								CHANNELS 3 Xrotation Yrotation Zrotation
								JOINT Head
								{
									OFFSET 0.000000 9.051102 1.034000
									CHANNELS 3 Xrotation Yrotation Zrotation
									End Site
									{
										OFFSET 0 0 0
									}
								}
							}
						}
						JOINT LeftShoulder_virtual
						{
							OFFSET 0.000000 0.000000 0.000000
							CHANNELS 3 Xrotation Yrotation Zrotation
							JOINT LeftShoulder
							{
								OFFSET 6.197800 13.665199 -4.064700
								CHANNELS 3 Xrotation Yrotation Zrotation
								JOINT LeftArm
								{
									OFFSET 7.778100 -0.187103 -1.709300
									CHANNELS 3 Xrotation Yrotation Zrotation
									JOINT LeftForeArm
									{
										OFFSET 22.049376 0.000000 0.000000
										CHANNELS 3 Xrotation Yrotation Zrotation
										JOINT LeftHand
										{
											OFFSET 23.009392 0.000000 0.000000
											CHANNELS 3 Xrotation Yrotation Zrotation
											End Site
											{
												OFFSET 0 0 0
											}
										}
									}
								}
							}
						}
						JOINT RightShoulder_virtual
						{
							OFFSET 0.000000 0.000000 0.000000
							CHANNELS 3 Xrotation Yrotation Zrotation
							JOINT RightShoulder
							{
								OFFSET -6.197800 13.665199 -4.064700
								CHANNELS 3 Xrotation Yrotation Zrotation
								JOINT RightArm
								{
									OFFSET -7.778100 -0.187103 -1.709300
									CHANNELS 3 Xrotation Yrotation Zrotation
									JOINT RightForeArm
									{
										OFFSET -22.049376 0.000000 0.000000
										CHANNELS 3 Xrotation Yrotation Zrotation
										JOINT RightHand
										{
											OFFSET -23.009392 0.000000 0.000000
											CHANNELS 3 Xrotation Yrotation Zrotation
											End Site
											{
												OFFSET 0 0 0
											}
										}
									}
								}
							}
						}
					}
				}
			}
		}
	}
}
MOTION
Frames: 13
Frame Time: 0.03333333
4.608852 70.135612 1.521090 0.000000 0.000000 0.000000 -3.066923 -42.995146 17.645691 -26.069611 31.780973 -2.898317 58.563053 3.462135 3.376689 -22.797268 19.686400 -5.323528 0.000000 0.000000 0.000000 -3.066923 -42.995146 17.645691 -35.481999 9.638829 -36.631650 66.172047 4.614556 -9.119726 -25.353481 -7.208057 20.939113 0.000000 0.000000 0.000000 -3.066923 -42.995146 17.645691 0.000001 -0.000001 0.000003 0.349140 -1.848626 7.205788 0.027303 -1.386084 5.062938 0.000000 0.000000 0.000000 -0.080031 -1.272387 5.054163 -11.424519 3.372350 7.860916 0.000000 0.000000 0.000000 -0.080031 -1.272387 5.054163 -0.548178 2.093935 14.135926 -33.452060 -33.142011 -47.500749 -0.000597 -87.864394 -0.000586 0.000000 0.000000 0.000000 -0.080031 -1.272387 5.054163 -0.011249 -5.892450 7.391180 118.821113 72.028149 -83.805868 -0.000008 25.801465 0.000018 0.000000 0.000000 0.000000 
4.974588 70.357285 1.554209 0.000000 0.000000 0.000000 -2.235422 -42.515896 18.232743 -26.503569 31.200526 -3.472387 57.886161 3.639485 2.810797 -22.483011 19.728195 -4.772341 0.000000 0.000000 0.000000 -2.235422 -42.515896 18.232743 -36.280660 9.651280 -36.422318 65.545337 4.423753 -9.122769 -24.674608 -6.813313 20.912827 0.000000 0.000000 0.000000 -2.235422 -42.515896 18.232743 -0.000000 -0.000003 -0.000001 0.394008 -1.584078 7.187534 0.080687 -1.191923 5.048745 0.000000 0.000000 0.000000 -0.026334 -1.085813 5.036022 -11.396557 3.371370 7.365480 0.000000 0.000000 0.000000 -0.026334 -1.085813 5.036022 -0.621170 2.423845 13.794277 -32.468356 -33.363726 -47.016639 0.000441 -89.505046 0.000579 0.000000 0.000000 0.000000 -0.026334 -1.085813 5.036022 -0.002584 -5.888135 7.492397 118.408542 71.656020 -83.809235 0.000006 25.428885 -0.000015 0.000000 0.000000 0.000000 
5.332373 70.651054 1.555943 0.000000 0.000000 0.000000 -1.350211 -42.074389 18.834778 -26.862195 30.804221 -4.015546 56.937184 3.848494 2.347290 -22.004129 19.626677 -4.271532 0.000000 0.000000 0.000000 -1.350211 -42.074389 18.834778 -37.263101 9.453859 -36.136277 64.814506 4.185185 -9.153014 -23.982954 -6.070820 20.741073 0.000000 0.000000 0.000000 -1.350211 -42.074389 18.834778 0.000000 -0.000001 0.000000 0.450033 -1.308988 7.148826 0.140024 -0.990037 5.027505 0.000000 0.000000 0.000000 0.034599 -0.892064 5.011685 -11.378207 3.392041 6.943745 0.000000 0.000000 0.000000 0.034599 -0.892064 5.011685 -0.713342 2.845078 13.378915 -31.471753 -33.569451 -46.626239 -179.997082 -89.203281 -179.997027 0.000000 0.000000 0.000000 0.034599 -0.892064 5.011685 0.007041 -5.858263 7.548152 118.019576 71.112542 -83.953414 -0.000009 25.056445 0.000003 0.000000 0.000000 0.000000 
5.673845 71.007591 1.530237 0.000000 0.000000 0.000000 -0.440362 -41.642810 19.429320 -27.124527 30.625749 -4.535393 55.737113 4.063777 2.040453 -21.372821 19.366776 -3.830550 0.000000 0.000000 0.000000 -0.440362 -41.642810 19.429320 -38.346031 9.053942 -35.873912 63.902492 3.925099 -9.199177 -23.188327 -5.109634 20.510638 0.000000 0.000000 0.000000 -0.440362 -41.642810 19.429320 0.000000 0.000002 -0.000002 0.508106 -1.040803 7.088530 0.196462 -0.793571 5.000022 0.000000 0.000000 0.000000 0.093394 -0.702939 4.982098 -11.340861 3.432825 6.607826 0.000000 0.000000 0.000000 0.093394 -0.702939 4.982098 -0.812577 3.306774 12.932780 -30.510520 -33.820617 -46.309349 179.998502 -88.347315 179.998489 0.000000 0.000000 0.000000 0.093394 -0.702939 4.982098 0.016835 -5.810536 7.566560 117.834369 70.381411 -84.393776 -0.000009 24.613630 0.000023 0.000000 0.000000 0.000000 
5.992546 71.406342 1.480717 0.000000 0.000000 0.000000 0.436656 -41.190340 19.964204 -27.286575 30.628768 -5.025285 54.355352 4.260348 1.896489 -20.625699 18.963843 -3.447396 0.000000 0.000000 0.000000 0.436656 -41.190340 19.964204 -39.487762 8.469121 -35.614396 62.861086 3.741486 -9.264793 -22.298187 -4.066173 20.187628 0.000000 0.000000 0.000000 0.436656 -41.190340 19.964204 0.000000 0.000000 0.000000 0.566565 -0.792673 7.018824 0.248643 -0.611698 4.969985 0.000000 0.000000 0.000000 0.148292 -0.527139 4.950952 -11.272899 3.482778 6.354422 0.000000 0.000000 0.000000 0.148292 -0.527139 4.950952 -0.900988 3.730478 12.504826 -29.629996 -34.106393 -46.030144 -179.994923 -87.986367 -179.994937 0.000000 0.000000 0.000000 0.148292 -0.527139 4.950952 0.026405 -5.749833 7.553614 117.949635 69.470100 -85.203885 0.000004 24.027692 -0.000001 0.000000 0.000000 0.000000 
6.283194 71.814476 1.412987 0.000000 0.000000 0.000000 1.210243 -40.690200 20.378735 -27.367668 30.723417 -5.464375 52.913052 4.415450 1.872532 -19.828207 18.461101 -3.107918 0.000000 0.000000 0.000000 1.210243 -40.690200 20.378735 -40.603514 7.742153 -35.348172 61.774915 3.619961 -9.332659 -21.346141 -3.081821 19.790658 0.000000 0.000000 0.000000 1.210243 -40.690200 20.378735 0.000001 0.000001 -0.000000 0.632597 -0.568115 6.947642 0.303668 -0.446558 4.938164 0.000000 0.000000 0.000000 0.206236 -0.366709 4.918811 -11.178950 3.524043 6.170249 0.000000 0.000000 0.000000 0.206236 -0.366709 4.918811 -0.962641 4.040609 12.140053 -28.878012 -34.352095 -45.784739 179.998871 -88.144486 179.998899 0.000000 0.000000 0.000000 0.206236 -0.366709 4.918811 0.036307 -5.681958 7.530091 118.357179 68.429541 -86.353788 -0.000006 23.250507 0.000007 0.000000 0.000000 0.000000 
6.544237 72.199448 1.335125 0.000000 0.000000 0.000000 1.831352 -40.137060 20.630084 -27.407500 30.814634 -5.820458 51.542984 4.519190 1.901731 -19.055173 17.912513 -2.793260 0.000000 0.000000 0.000000 1.831352 -40.137060 20.630084 -41.619143 6.920134 -35.062308 60.741665 3.560281 -9.395617 -20.406309 -2.257195 19.335919 0.000000 0.000000 0.000000 1.831352 -40.137060 20.630084 0.000000 0.000000 0.000001 0.717989 -0.361881 6.881738 0.373151 -0.294157 4.904672 0.000000 0.000000 0.000000 0.278831 -0.218173 4.885691 -11.068357 3.540294 6.038587 0.000000 0.000000 0.000000 0.278831 -0.218173 4.885691 -0.992063 4.206206 11.860324 -28.353278 -34.505173 -45.620753 -179.996863 -88.778751 -179.996877 0.000000 0.000000 0.000000 0.278831 -0.218173 4.885691 0.044093 -5.617872 7.488474 118.954520 67.350774 -87.725427 -0.000003 22.292423 -0.000001 0.000000 0.000000 0.000000 
6.777964 72.539314 1.254494 0.000000 0.000000 0.000000 2.277243 -39.539453 20.696131 -27.446652 30.838687 -6.061816 50.346694 4.574832 1.929700 -18.364412 17.357217 -2.488930 0.000000 0.000000 0.000000 2.277243 -39.539453 20.696131 -42.500794 6.068157 -34.779101 59.773034 3.568208 -9.447927 -19.455881 -1.641719 18.881143 0.000000 0.000000 0.000000 2.277243 -39.539453 20.696131 0.000000 0.000001 0.000000 0.832106 -0.167246 6.822118 0.466526 -0.150297 4.868680 0.000000 0.000000 0.000000 0.375583 -0.077675 4.850633 -10.940238 3.521362 5.948926 0.000000 0.000000 0.000000 0.375583 -0.077675 4.850633 -0.993941 4.241759 11.667666 -28.024835 -34.474441 -45.489743 179.995620 -89.578027 179.995907 0.000000 0.000000 0.000000 0.375583 -0.077675 4.850633 0.051851 -5.560317 7.463322 119.681580 66.339633 -89.247077 0.000004 21.180707 -0.000008 0.000000 0.000000 0.000000 
6.984859 72.827087 1.176350 0.000000 0.000000 0.000000 2.551224 -38.910293 20.575989 -27.511211 30.765255 -6.167698 49.370984 4.594502 1.926375 -17.783379 16.813935 -2.191638 0.000000 0.000000 0.000000 2.551224 -38.910293 20.575989 -43.229514 5.192363 -34.484744 58.915463 3.660282 -9.491298 -18.561556 -1.238280 18.420298 0.000000 0.000000 0.000000 2.551224 -38.910293 20.575989 0.000001 0.000001 -0.000002 0.976621 0.018611 6.764861 0.586334 -0.013875 4.828194 0.000000 0.000000 0.000000 0.499182 0.055757 4.811649 -10.782260 3.465059 5.897548 0.000000 0.000000 0.000000 0.499182 0.055757 4.811649 -0.979585 4.192212 11.552913 -27.662413 -34.121815 -45.203213 -179.988954 -89.882967 -179.988585 0.000000 0.000000 0.000000 0.499182 0.055757 4.811649 0.059270 -5.513784 7.461372 120.496968 65.501145 -90.867785 -0.000006 19.982852 -0.000001 0.000000 0.000000 0.000000 
7.165768 73.067139 1.102863 0.000000 0.000000 0.000000 2.675026 -38.257529 20.288353 -27.609457 30.592930 -6.140801 48.610197 4.595303 1.887989 -17.309096 16.281475 -1.906189 0.000000 0.000000 0.000000 2.675026 -38.257529 20.288353 -43.812849 4.290187 -34.187074 58.158788 3.811345 -9.525567 -17.741813 -0.975190 17.968684 0.000000 0.000000 0.000000 2.675026 -38.257529 20.288353 0.000000 0.000000 0.000001 1.144841 0.192143 6.701686 0.727377 0.111884 4.780887 0.000000 0.000000 0.000000 0.644573 0.178820 4.766408 -10.579058 3.376254 5.886654 0.000000 0.000000 0.000000 0.644573 0.178820 4.766408 -0.961056 4.107113 11.507573 -27.287352 -33.443895 -44.791558 -179.990142 -89.596516 -179.990170 0.000000 0.000000 0.000000 0.644573 0.178820 4.766408 0.066433 -5.479158 7.485394 121.391941 64.919514 -92.572798 0.000007 18.788524 -0.000001 0.000000 0.000000 0.000000 
7.320982 73.268936 1.033419 0.000000 0.000000 0.000000 2.677545 -37.578885 19.864376 -27.737137 30.332535 -6.006149 48.028927 4.594830 1.829225 -16.919960 15.748794 -1.643085 0.000000 0.000000 0.000000 2.677545 -37.578885 19.864376 -44.269765 3.356416 -33.902102 57.475373 3.994648 -9.552032 -16.998123 -0.768571 17.540003 0.000000 0.000000 0.000000 2.677545 -37.578885 19.864376 0.000001 -0.000001 -0.000001 1.325227 0.344086 6.622992 0.879414 0.220164 4.725282 0.000000 0.000000 0.000000 0.801721 0.284947 4.713316 -10.323302 3.263857 5.921955 0.000000 0.000000 0.000000 0.801721 0.284947 4.713316 -0.946781 4.021464 11.528758 -27.264640 -32.676609 -44.572179 -179.993612 -89.442925 -179.993571 0.000000 0.000000 0.000000 0.801721 0.284947 4.713316 0.073534 -5.453138 7.529753 122.381280 64.637994 -94.376931 -0.000003 17.682784 0.000007 0.000000 0.000000 0.000000 
7.449762 73.443321 0.966501 0.000000 0.000000 0.000000 2.590553 -36.864157 19.343669 -27.880699 29.998170 -5.807646 47.574580 4.606107 1.775756 -16.584307 15.207169 -1.415144 0.000000 0.000000 0.000000 2.590553 -36.864157 19.343669 -44.628145 2.384599 -33.645392 56.840312 4.181622 -9.572759 -16.328394 -0.542353 17.138123 0.000000 0.000000 0.000000 2.590553 -36.864157 19.343669 0.000000 0.000003 0.000000 1.506152 0.465062 6.519152 1.030762 0.305487 4.660095 0.000000 0.000000 0.000000 0.958995 0.368920 4.650939 -10.029335 3.138988 6.001700 0.000000 0.000000 0.000000 0.958995 0.368920 4.650939 -0.940425 3.952069 11.612881 -27.719554 -31.993159 -44.666835 -179.992273 -89.813374 -179.992096 0.000000 0.000000 0.000000 0.958995 0.368920 4.650939 0.080607 -5.426025 7.570559 123.497251 64.642386 -96.321418 -0.000000 16.701554 0.000016 0.000000 0.000000 0.000000 
7.550991 73.599022 0.900911 0.000000 0.000000 0.000000 2.443837 -36.102457 18.766324 -28.026723 29.608552 -5.592869 47.199271 4.636066 1.759748 -16.273650 14.652279 -1.235922 0.000000 0.000000 0.000000 2.443837 -36.102457 18.766324 -44.915454 1.376730 -33.426925 56.239699 4.348993 -9.589968 -15.729407 -0.251758 16.761759 0.000000 0.000000 0.000000 2.443837 -36.102457 18.766324 0.000000 -0.000001 0.000000 1.678838 0.550405 6.385374 1.171747 0.365973 4.585486 0.000000 0.000000 0.000000 1.106523 0.429073 4.579239 -9.729427 3.011566 6.112309 0.000000 0.000000 0.000000 1.106523 0.429073 4.579239 -0.941628 3.903459 11.741812 -28.523965 -31.463710 -45.019648 -0.003501 -89.341511 -0.003528 0.000000 0.000000 0.000000 1.106523 0.429073 4.579239 0.088315 -5.382640 7.578418 124.868467 64.836650 -98.542274 0.000012 15.709688 -0.000018 0.000000 0.000000 0.000000 
